<svg xmlns="http://www.w3.org/2000/svg" width="82.761" height="82.761" viewBox="0 0 82.761 82.761">
  <path id="qr_code_scanner_FILL0_wght400_GRAD0_opsz48" d="M4,21.9V4H21.9v6.207H10.207V21.9ZM4,86.761v-17.9h6.207v11.69H21.9v6.207Zm64.864,0V80.554h11.69V68.864h6.207v17.9ZM80.554,21.9V10.207H68.864V4h17.9V21.9ZM68.967,69.071h6.517v6.517H68.967Zm0-13.035h6.517v6.517H68.967ZM62.45,62.553h6.517v6.517H62.45Zm-6.517,6.517H62.45v6.517H55.933Zm-6.517-6.517h6.517v6.517H49.415ZM62.45,49.519h6.517v6.517H62.45Zm-6.517,6.517H62.45v6.517H55.933Zm-6.517-6.517h6.517v6.517H49.415Zm26.07-34.346v26.07H49.415V15.173ZM41.242,49.519v26.07H15.173V49.519Zm0-34.346v26.07H15.173V15.173ZM36.07,70.416V54.691H20.345V70.416Zm0-34.346V20.345H20.345V36.07Zm34.242,0V20.345H54.588V36.07Z" transform="translate(-4 -4)" fill="#fff"/>
</svg>
